<mxfile host="app.diagrams.net" modified="2023-12-14T01:11:10.083Z" agent="Mozilla/5.0 (Windows NT 10.0; Win64; x64) AppleWebKit/537.36 (KHTML, like Gecko) Chrome/120.0.0.0 Safari/537.36" version="22.1.8" etag="EearI2iLTgD8hIK9hhGe" type="github">
  <diagram name="PÃ¡gina-1" id="9Tw5aG8YvwJOKgrTcYbX">
    <mxGraphModel>
      <root>
        <mxCell id="0" />
        <mxCell id="1" parent="0" />
      </root>
    </mxGraphModel>
  </diagram>
</mxfile>
